<svg width="48" height="48" viewBox="0 0 48 48" fill="none" xmlns="http://www.w3.org/2000/svg">
<path d="M24.0001 47.9001C10.8001 47.9001 0.100098 37.2001 0.100098 24.0001C0.100098 10.8001 10.8001 0.100098 24.0001 0.100098C37.2001 0.100098 47.9001 10.8001 47.9001 24.0001C47.9001 37.2001 37.2001 47.9001 24.0001 47.9001ZM24.0001 2.7001C12.3001 2.7001 2.7001 12.3001 2.7001 24.0001C2.7001 35.7001 12.3001 45.3001 24.0001 45.3001C35.7001 45.3001 45.3001 35.7001 45.3001 24.0001C45.3001 12.3001 35.7001 2.7001 24.0001 2.7001Z" fill="#CBD5FF"/>
<path d="M24.5003 37.7001L10.8003 24.0001L24.5003 10.3L26.3003 12.2001L14.6003 24.0001L26.3003 35.8L24.5003 37.7001Z" fill="#CBD5FF"/>
<path d="M12.7002 22.6001H36.7002V25.4001H12.7002V22.6001Z" fill="#CBD5FF"/>
</svg>
