<svg width="1707" height="1064" viewBox="0 0 1707 1064" fill="none" xmlns="http://www.w3.org/2000/svg">
<g clip-path="url(#clip0_206_5)">
<path d="M0 532V1064H853.333H1706.67V532V-5.54919e-05H853.333H0V532ZM489.2 20.5333C488.933 20.7999 483.867 22.3999 478 23.8666C433.333 35.1999 364.933 64.2666 321.333 90.2666C222.933 149.067 143.067 229.733 87.3333 326.667C58.9333 376 40.5333 420.533 22.2667 483.333C20.5333 489.2 20.2667 462.933 20.1333 254.933L20 19.9999H254.933C384.133 19.9999 489.467 20.2666 489.2 20.5333ZM642.667 331.333V642.667H331.067H19.6L20.5333 624.267C29.7333 439.733 115.067 272.267 258.267 157.733C353.867 81.3333 474.533 32.7999 594.667 22.6666C603.867 21.9999 613.467 21.0666 616 20.7999C618.533 20.6666 625.6 20.2666 631.733 20.2666L642.667 19.9999V331.333ZM708.4 21.3333C832.8 28.7999 947.867 55.5999 1059.33 103.333C1226.53 174.8 1372.4 289.6 1481.07 435.333C1607.73 605.067 1678.53 806.533 1686.13 1019.33L1687.07 1044H1174.93H662.667V532V19.9999H674C680.267 19.9999 695.733 20.6666 708.4 21.3333ZM1686.53 432.933C1686.53 660.133 1686.27 845.333 1686 844.667C1685.73 843.867 1682.93 832.267 1679.87 818.667C1654.93 707.067 1607.07 591.733 1544.27 492C1502.53 425.733 1457.07 368.933 1398 309.867C1338.93 250.667 1285.47 207.6 1218.67 164.933C1118.13 100.933 1001.33 52.1333 888 26.7999C874.4 23.7333 862.8 20.9333 862 20.6666C861.333 20.3999 1046.53 20.1333 1273.73 20.1333L1686.67 19.9999L1686.53 432.933ZM401.333 853.467V1044.4L387.733 1043.47C223.333 1032.4 84.1333 922.4 36.6667 766C28.2667 738.133 20.1333 690.267 20 668.267V662.667H210.667H401.333V853.467ZM431.733 665.467C429.733 666.933 426.533 670.133 424.667 672.4L421.333 676.667V669.6V662.667H428.4L435.333 662.8L431.733 665.467ZM481.333 692.667V722.667H452C418.133 722.667 420.267 723.867 426 708.533C430.4 696.933 439.333 684.533 448.267 677.733C458.8 669.733 462.267 668.133 481.067 662.8C481.2 662.667 481.333 676.133 481.333 692.667ZM516 664.533C546 669.333 572.933 682.8 594.8 703.6C621.333 729.067 636.933 759.333 641.067 793.733L642.133 802.667H571.733H501.333L501.467 733.733C501.467 695.867 501.733 664.4 502.133 663.733C503.067 662.4 502.667 662.4 516 664.533ZM642.667 697.6V732.533L634.667 720.267C621.867 700.533 598.667 678.133 578.667 666.267L572.667 662.667H607.733H642.667V697.6ZM481.333 772.533V802.4L475.733 801.067C450.133 795.467 427.2 771.733 423.067 746.933L422.267 742.667H451.867H481.333V772.533ZM43.8667 836.667C65.6 880.267 98.5333 924.133 133.333 955.6C150 970.8 176.933 991.067 195.333 1002.53C212.933 1013.47 247.333 1030.4 267.333 1037.87L283.333 1043.87L151.733 1044H20V912.267L20.1333 780.667L26.6667 798C30.4 807.467 38.1333 824.933 43.8667 836.667ZM434.533 802.267C434.8 802.533 432 802.667 428.267 802.667H421.333V796.4V790.133L427.6 796C431.067 799.333 434.267 802.133 434.533 802.267ZM642.667 823.333C642.667 823.733 642 829.867 641.2 837.067C630.667 933.467 563.067 1012 469.6 1036.53C457.333 1039.73 432.133 1043.87 424.4 1044H421.333V933.333V822.667H532C592.933 822.667 642.667 822.933 642.667 823.333ZM642.667 978V1044H577.067H511.333L526.533 1036C560.933 1017.73 588.4 994.667 611.467 964.667C620.133 953.2 634.8 928.8 638.933 919.067C640.533 915.2 642 912 642.267 912C642.533 912 642.667 941.733 642.667 978Z" fill="#324251"/>
</g>
<defs>
<clipPath id="clip0_206_5">
<rect width="1706.67" height="1064" fill="white"/>
</clipPath>
</defs>
</svg>
