<svg width="48" height="48" viewBox="0 0 48 48" fill="none" xmlns="http://www.w3.org/2000/svg">
<path d="M24.0001 47.9001C10.8001 47.9001 0.100098 37.2001 0.100098 24.0001C0.100098 10.8001 10.8001 0.100098 24.0001 0.100098C37.2001 0.100098 47.9001 10.8001 47.9001 24.0001C47.9001 37.2001 37.2001 47.9001 24.0001 47.9001ZM24.0001 2.7001C12.3001 2.7001 2.7001 12.3001 2.7001 24.0001C2.7001 35.7001 12.3001 45.3001 24.0001 45.3001C35.7001 45.3001 45.3001 35.7001 45.3001 24.0001C45.3001 12.3001 35.7001 2.7001 24.0001 2.7001Z" fill="#CBD5FF"/>
<path d="M23.5002 37.7001L21.7002 35.8L33.4002 24.0001L21.7002 12.2001L23.5002 10.3L37.2002 24.0001L23.5002 37.7001Z" fill="#CBD5FF"/>
<path d="M35.3003 25.4001H11.3003V22.6001H35.3003V25.4001Z" fill="#CBD5FF"/>
</svg>
